<svg width="80" height="80" viewBox="0 0 80 80" xmlns="http://www.w3.org/2000/svg">
  <defs>
    <linearGradient id="artGrad" x1="0%" y1="0%" x2="100%" y2="100%">
      <stop offset="0%" style="stop-color:#ff9800;stop-opacity:1" />
      <stop offset="100%" style="stop-color:#f57c00;stop-opacity:1" />
    </linearGradient>
  </defs>
  <rect width="80" height="80" rx="12" fill="url(#artGrad)"/>
  <g fill="white" opacity="0.9">
    <!-- Palette -->
    <path d="M20,40 Q20,25 35,25 Q50,25 55,35 Q60,45 55,55 Q50,65 35,65 Q25,65 20,55 Z" stroke="white" stroke-width="1.5" fill="none"/>
    <!-- Thumb hole -->
    <ellipse cx="45" cy="50" rx="6" ry="8" stroke="white" stroke-width="1.5" fill="none"/>
    <!-- Paint dots -->
    <circle cx="30" cy="35" r="3" fill="white" opacity="0.8"/>
    <circle cx="40" cy="30" r="3" fill="white" opacity="0.6"/>
    <circle cx="50" cy="35" r="3" fill="white" opacity="0.7"/>
    <circle cx="35" cy="55" r="3" fill="white" opacity="0.9"/>
    <!-- Brush -->
    <line x1="55" y1="20" x2="65" y2="10" stroke="white" stroke-width="3"/>
    <line x1="60" y1="15" x2="70" y2="5" stroke="white" stroke-width="2"/>
    <ellipse cx="57" cy="17" rx="2" ry="4" fill="white" transform="rotate(45 57 17)"/>
  </g>
</svg> 