<svg width="80" height="80" viewBox="0 0 80 80" xmlns="http://www.w3.org/2000/svg">
  <defs>
    <linearGradient id="astroGrad" x1="0%" y1="0%" x2="100%" y2="100%">
      <stop offset="0%" style="stop-color:#3f51b5;stop-opacity:1" />
      <stop offset="100%" style="stop-color:#303f9f;stop-opacity:1" />
    </linearGradient>
  </defs>
  <rect width="80" height="80" rx="12" fill="url(#astroGrad)"/>
  <g fill="white" opacity="0.9">
    <!-- Telescope -->
    <rect x="15" y="35" width="25" height="4" rx="2" stroke="white" stroke-width="1" fill="white"/>
    <rect x="12" y="33" width="6" height="8" rx="1" stroke="white" stroke-width="1" fill="none"/>
    <line x1="25" y1="39" x2="25" y2="50" stroke="white" stroke-width="2"/>
    <line x1="20" y1="50" x2="30" y2="50" stroke="white" stroke-width="2"/>
    <!-- Stars -->
    <g stroke="white" stroke-width="1" fill="white">
      <path d="M50,20 L52,25 L57,25 L53,28 L55,33 L50,30 L45,33 L47,28 L43,25 L48,25 Z"/>
      <circle cx="60" cy="15" r="1.5"/>
      <circle cx="65" cy="25" r="1"/>
      <circle cx="55" cy="35" r="1"/>
    </g>
    <!-- Planets -->
    <circle cx="45" cy="55" r="6" stroke="white" stroke-width="1.5" fill="none"/>
    <ellipse cx="45" cy="55" rx="10" ry="3" stroke="white" stroke-width="1" fill="none"/>
    <circle cx="65" cy="50" r="4" fill="white" opacity="0.7"/>
    <!-- Constellation lines -->
    <line x1="60" y1="15" x2="65" y2="25" stroke="white" stroke-width="0.5"/>
    <line x1="65" y1="25" x2="55" y2="35" stroke="white" stroke-width="0.5"/>
  </g>
</svg> 