<svg width="80" height="80" viewBox="0 0 80 80" xmlns="http://www.w3.org/2000/svg">
  <defs>
    <linearGradient id="chemGrad" x1="0%" y1="0%" x2="100%" y2="100%">
      <stop offset="0%" style="stop-color:#ff9800;stop-opacity:1" />
      <stop offset="100%" style="stop-color:#f57c00;stop-opacity:1" />
    </linearGradient>
  </defs>
  <rect width="80" height="80" rx="12" fill="url(#chemGrad)"/>
  <g fill="white" opacity="0.9">
    <!-- Beaker -->
    <path d="M25,50 L25,65 Q25,70 30,70 L50,70 Q55,70 55,65 L55,50 L60,40 L20,40 Z" stroke="white" stroke-width="1.5" fill="none"/>
    <rect x="30" y="15" width="20" height="25" stroke="white" stroke-width="1.5" fill="none"/>
    <!-- Liquid in beaker -->
    <path d="M26,55 L26,64 Q26,68 30,68 L50,68 Q54,68 54,64 L54,55 Z" fill="white" opacity="0.3"/>
    <!-- Bubbles -->
    <circle cx="35" cy="60" r="1.5" fill="white" opacity="0.6"/>
    <circle cx="42" cy="58" r="1" fill="white" opacity="0.6"/>
    <circle cx="47" cy="62" r="1.2" fill="white" opacity="0.6"/>
    <!-- Molecule -->
    <circle cx="20" cy="25" r="3" stroke="white" stroke-width="1.5" fill="none"/>
    <circle cx="30" cy="30" r="2.5" stroke="white" stroke-width="1.5" fill="none"/>
    <circle cx="35" cy="20" r="2" stroke="white" stroke-width="1.5" fill="none"/>
    <line x1="23" y1="25" x2="27" y2="28" stroke="white" stroke-width="1"/>
    <line x1="32" y1="28" x2="35" y2="22" stroke="white" stroke-width="1"/>
  </g>
</svg> 