<svg width="80" height="80" viewBox="0 0 80 80" xmlns="http://www.w3.org/2000/svg">
  <defs>
    <linearGradient id="musicGrad" x1="0%" y1="0%" x2="100%" y2="100%">
      <stop offset="0%" style="stop-color:#e91e63;stop-opacity:1" />
      <stop offset="100%" style="stop-color:#c2185b;stop-opacity:1" />
    </linearGradient>
  </defs>
  <rect width="80" height="80" rx="12" fill="url(#musicGrad)"/>
  <g fill="white" opacity="0.9">
    <!-- Staff lines -->
    <line x1="15" y1="30" x2="65" y2="30" stroke="white" stroke-width="1"/>
    <line x1="15" y1="35" x2="65" y2="35" stroke="white" stroke-width="1"/>
    <line x1="15" y1="40" x2="65" y2="40" stroke="white" stroke-width="1"/>
    <line x1="15" y1="45" x2="65" y2="45" stroke="white" stroke-width="1"/>
    <line x1="15" y1="50" x2="65" y2="50" stroke="white" stroke-width="1"/>
    <!-- Treble clef -->
    <path d="M20,25 Q25,20 25,30 Q25,45 20,50 Q15,55 20,60 Q25,55 25,50 Q25,40 30,35 Q35,30 30,25 Q25,20 20,25" stroke="white" stroke-width="1.5" fill="white" opacity="0.8"/>
    <!-- Musical notes -->
    <ellipse cx="45" cy="42" rx="3" ry="2" fill="white"/>
    <line x1="48" y1="42" x2="48" y2="25" stroke="white" stroke-width="2"/>
    <ellipse cx="55" cy="38" rx="3" ry="2" fill="white"/>
    <line x1="58" y1="38" x2="58" y2="21" stroke="white" stroke-width="2"/>
    <!-- Connecting beam -->
    <path d="M48,25 L58,21 L58,28 L48,32 Z" fill="white"/>
  </g>
</svg> 