<svg width="80" height="80" viewBox="0 0 80 80" xmlns="http://www.w3.org/2000/svg">
  <defs>
    <linearGradient id="socialGrad" x1="0%" y1="0%" x2="100%" y2="100%">
      <stop offset="0%" style="stop-color:#ff5722;stop-opacity:1" />
      <stop offset="100%" style="stop-color:#d84315;stop-opacity:1" />
    </linearGradient>
  </defs>
  <rect width="80" height="80" rx="12" fill="url(#socialGrad)"/>
  <g fill="white" opacity="0.9">
    <!-- People icons -->
    <circle cx="25" cy="25" r="6" stroke="white" stroke-width="1.5" fill="none"/>
    <path d="M15,45 Q15,35 25,35 Q35,35 35,45 L35,50 L15,50 Z" stroke="white" stroke-width="1.5" fill="none"/>
    
    <circle cx="55" cy="25" r="6" stroke="white" stroke-width="1.5" fill="none"/>
    <path d="M45,45 Q45,35 55,35 Q65,35 65,45 L65,50 L45,50 Z" stroke="white" stroke-width="1.5" fill="none"/>
    
    <circle cx="40" cy="55" r="6" stroke="white" stroke-width="1.5" fill="none"/>
    <path d="M30,70 Q30,65 40,65 Q50,65 50,70" stroke="white" stroke-width="1.5" fill="none"/>
    
    <!-- Connection lines -->
    <line x1="31" y1="35" x2="49" y2="35" stroke="white" stroke-width="1.5"/>
    <line x1="35" y1="40" x2="45" y2="50" stroke="white" stroke-width="1.5"/>
    <line x1="45" y1="40" x2="35" y2="50" stroke="white" stroke-width="1.5"/>
  </g>
</svg> 