<svg width="80" height="80" viewBox="0 0 80 80" xmlns="http://www.w3.org/2000/svg">
  <defs>
    <linearGradient id="sportsGrad" x1="0%" y1="0%" x2="100%" y2="100%">
      <stop offset="0%" style="stop-color:#4caf50;stop-opacity:1" />
      <stop offset="100%" style="stop-color:#388e3c;stop-opacity:1" />
    </linearGradient>
  </defs>
  <rect width="80" height="80" rx="12" fill="url(#sportsGrad)"/>
  <g fill="white" opacity="0.9">
    <!-- Soccer ball -->
    <circle cx="30" cy="35" r="12" stroke="white" stroke-width="1.5" fill="none"/>
    <polygon points="30,25 35,30 30,35 25,30" fill="white"/>
    <path d="M20,30 L25,25 M35,25 L40,30 M25,45 L30,40 M35,40 L40,45" stroke="white" stroke-width="1"/>
    <!-- Trophy -->
    <rect x="50" y="50" width="16" height="12" rx="2" stroke="white" stroke-width="1.5" fill="none"/>
    <rect x="52" y="45" width="12" height="5" fill="white"/>
    <rect x="56" y="62" width="4" height="8" fill="white"/>
    <rect x="52" y="70" width="12" height="2" fill="white"/>
    <!-- Handles -->
    <path d="M50,52 Q45,52 45,57 Q45,62 50,62" stroke="white" stroke-width="1.5" fill="none"/>
    <path d="M66,52 Q71,52 71,57 Q71,62 66,62" stroke="white" stroke-width="1.5" fill="none"/>
  </g>
</svg> 