<svg width="80" height="80" viewBox="0 0 80 80" xmlns="http://www.w3.org/2000/svg">
  <defs>
    <linearGradient id="histGrad" x1="0%" y1="0%" x2="100%" y2="100%">
      <stop offset="0%" style="stop-color:#fbbc04;stop-opacity:1" />
      <stop offset="100%" style="stop-color:#f9ab00;stop-opacity:1" />
    </linearGradient>
  </defs>
  <rect width="80" height="80" rx="12" fill="url(#histGrad)"/>
  <g fill="white" opacity="0.9">
    <!-- Scroll -->
    <rect x="15" y="20" width="30" height="25" rx="2" stroke="white" stroke-width="1.5" fill="none"/>
    <path d="M15,22 Q12,20 15,18 M45,22 Q48,20 45,18" stroke="white" stroke-width="1.5" fill="none"/>
    <path d="M15,43 Q12,45 15,47 M45,43 Q48,45 45,47" stroke="white" stroke-width="1.5" fill="none"/>
    <line x1="20" y1="28" x2="40" y2="28" stroke="white" stroke-width="1"/>
    <line x1="20" y1="32" x2="35" y2="32" stroke="white" stroke-width="1"/>
    <line x1="20" y1="36" x2="38" y2="36" stroke="white" stroke-width="1"/>
    <!-- Clock -->
    <circle cx="55" cy="55" r="12" stroke="white" stroke-width="1.5" fill="none"/>
    <line x1="55" y1="55" x2="55" y2="47" stroke="white" stroke-width="2"/>
    <line x1="55" y1="55" x2="61" y2="55" stroke="white" stroke-width="1.5"/>
    <circle cx="55" cy="55" r="1.5" fill="white"/>
  </g>
</svg> 